<?xml version="1.0" standalone="no"?>
<!DOCTYPE svg PUBLIC "-//W3C//DTD SVG 20010904//EN"
 "http://www.w3.org/TR/2001/REC-SVG-20010904/DTD/svg10.dtd">
<svg version="1.0" xmlns="http://www.w3.org/2000/svg"
 width="602.000000pt" height="586.000000pt" viewBox="0 0 602.000000 586.000000"
 preserveAspectRatio="xMidYMid meet">

<g transform="translate(0.000000,586.000000) scale(0.100000,-0.100000)"
fill="#000000" stroke="none">
<path d="M2795 5799 c-200 -12 -521 -84 -710 -158 -145 -58 -353 -161 -468
-232 -43 -27 -81 -49 -84 -49 -10 0 -167 -113 -263 -189 -179 -141 -396 -368
-492 -513 -23 -35 -47 -69 -54 -75 -7 -7 -27 -37 -44 -65 -17 -29 -49 -82 -71
-118 -34 -56 -181 -341 -187 -363 -1 -4 -8 -23 -16 -42 -64 -152 -164 -554
-187 -749 -17 -147 -6 -556 20 -724 36 -236 77 -383 180 -639 47 -119 158
-344 207 -421 19 -29 34 -55 34 -58 0 -3 19 -33 42 -67 254 -375 561 -663 938
-879 300 -171 529 -257 885 -334 113 -24 400 -54 523 -54 132 0 416 24 547 46
93 15 348 91 490 146 108 41 376 175 503 251 314 187 634 490 839 792 196 290
341 606 419 916 67 266 86 428 87 744 1 279 -4 317 -98 708 -71 301 -223 637
-411 910 -30 43 -54 82 -54 85 0 4 -10 18 -23 32 -12 14 -49 59 -82 100 -66
83 -269 289 -330 335 -22 17 -49 38 -60 48 -29 27 -201 149 -258 183 -27 16
-70 41 -95 57 -249 147 -638 291 -957 353 -102 20 -577 34 -770 23z m546 -109
c46 -5 107 -14 134 -20 28 -5 106 -21 176 -35 258 -51 505 -140 738 -265 115
-61 305 -180 321 -200 3 -3 40 -32 82 -64 87 -64 271 -242 351 -338 28 -35 57
-70 64 -78 7 -8 46 -62 87 -120 133 -186 239 -376 325 -584 46 -111 134 -389
145 -461 2 -16 9 -52 15 -80 45 -218 65 -578 41 -770 -20 -161 -29 -213 -66
-355 -74 -283 -115 -399 -204 -579 -57 -116 -187 -337 -221 -376 -9 -11 -29
-38 -44 -60 -40 -61 -140 -179 -235 -278 -215 -225 -495 -421 -823 -577 -286
-136 -471 -197 -677 -225 -22 -3 -104 -15 -200 -30 -123 -19 -478 -13 -635 10
-22 4 -85 13 -140 21 -91 13 -374 95 -401 115 -6 5 -35 18 -65 28 -572 203
-1033 578 -1368 1111 -192 305 -356 748 -395 1065 -4 28 -9 68 -11 90 -21 167
-27 357 -16 496 16 190 90 553 142 689 126 332 238 542 435 815 121 169 344
389 525 520 191 137 395 253 597 338 187 80 290 111 502 152 47 9 100 21 118
27 106 33 489 43 703 18z"/>
<path d="M2896 5614 c-3 -8 -6 -24 -6 -35 0 -24 -29 -37 -42 -18 -7 10 -8 6
-5 -13 4 -30 -2 -35 -20 -17 -8 8 -14 1 -23 -26 -7 -22 -24 -44 -42 -55 -35
-21 -37 -33 -6 -40 31 -8 36 -60 11 -107 -16 -29 -16 -35 -3 -43 10 -6 22 -4
37 5 29 19 33 19 33 -5 0 -11 -9 -25 -19 -32 -18 -11 -18 -12 3 -29 18 -15 19
-21 9 -38 -7 -11 -13 -26 -13 -33 0 -19 48 31 54 57 4 14 23 33 48 47 39 22
68 52 58 61 -3 3 -15 8 -27 11 -16 5 -23 3 -23 -6 0 -20 -26 -53 -33 -42 -3 5
3 27 13 49 13 29 16 45 9 64 -7 16 -6 27 1 31 6 4 12 20 13 36 2 25 -2 29 -23
29 -35 0 -35 25 0 63 32 35 39 72 16 91 -11 9 -15 8 -20 -5z m-66 -195 c0 -15
-4 -19 -16 -15 -9 3 -18 6 -20 6 -2 0 -4 7 -4 15 0 8 9 15 20 15 14 0 20 -7
20 -21z m16 -64 c-10 -8 -23 -12 -28 -9 -14 9 2 24 25 24 21 -1 21 -1 3 -15z
m-11 -44 c-8 -13 -35 -15 -35 -2 0 5 8 11 18 13 21 5 26 2 17 -11z"/>
<path d="M2617 5553 c-10 -9 -8 -106 2 -122 13 -20 31 18 31 67 0 38 -19 69
-33 55z"/>
<path d="M3564 5452 c-6 -4 -14 -31 -17 -61 -9 -76 -19 -85 -89 -77 -57 6 -58
5 -58 -21 0 -25 1 -26 50 -20 81 10 62 -31 -32 -72 -51 -22 -60 -36 -29 -46
25 -8 61 8 90 39 14 14 30 26 36 26 19 0 48 -38 42 -54 -7 -17 20 -36 47 -36
28 0 19 46 -15 74 -17 14 -35 26 -40 26 -6 0 -9 10 -7 23 2 18 12 24 51 31 40
8 47 13 45 30 -2 17 -9 20 -31 18 -25 -3 -27 -1 -18 17 29 54 30 68 8 89 -12
12 -27 18 -33 14z"/>
<path d="M2611 5233 c-15 -169 -14 -188 14 -188 17 0 21 10 28 70 4 39 15 96
23 127 7 32 14 64 14 72 0 17 -42 66 -57 66 -5 0 -15 -66 -22 -147z"/>
<path d="M1818 5333 c-24 -6 -23 -8 16 -62 18 -25 43 -65 55 -89 20 -38 20
-45 7 -71 -8 -15 -53 -60 -100 -100 -92 -77 -105 -101 -57 -101 22 0 34 7 47
28 9 16 25 34 35 41 17 10 21 8 29 -14 6 -15 10 -33 10 -41 0 -29 33 -9 45 26
13 37 23 42 39 17 18 -29 -22 -104 -96 -179 -38 -38 -67 -72 -65 -75 11 -10
77 11 95 30 26 28 122 197 122 214 0 21 12 15 60 -28 65 -58 77 -63 84 -36 9
37 -20 130 -52 170 -20 23 -35 22 -28 -3 3 -11 9 -29 12 -40 3 -12 1 -20 -6
-20 -15 0 -77 66 -96 101 -12 23 -11 29 1 39 8 7 15 19 15 26 0 17 -22 18 -38
2 -12 -12 -21 5 -47 90 -14 47 -41 83 -59 81 -6 -1 -19 -3 -28 -6z m134 -260
c21 -25 29 -51 18 -58 -12 -7 -71 55 -64 67 9 13 30 9 46 -9z m-48 -39 c8 -21
-11 -44 -35 -44 -23 0 -24 9 -3 38 18 26 30 28 38 6z"/>
<path d="M1980 5285 c0 -30 29 -75 45 -69 21 8 19 47 -3 67 -23 21 -42 22 -42
2z"/>
<path d="M4348 5237 c-26 -31 -26 -32 -42 -12 -15 19 -15 19 -16 1 0 -11 -7
-28 -17 -38 -15 -17 -15 -18 1 -18 9 0 19 -7 22 -15 4 -8 14 -15 24 -15 27 0
34 -17 11 -29 -23 -13 -47 -6 -55 16 -5 12 -9 13 -20 4 -7 -6 -21 -9 -30 -5
-10 4 -16 1 -16 -9 0 -8 -7 -20 -16 -28 -14 -11 -13 -14 6 -24 20 -11 20 -12
4 -26 -12 -10 -45 -14 -121 -14 -56 0 -103 -2 -103 -5 0 -19 30 -41 60 -46 25
-4 58 3 115 24 60 22 86 27 104 20 30 -11 20 -21 -36 -37 -33 -9 -44 -18 -49
-37 -8 -32 -43 -46 -93 -38 -25 4 -41 2 -46 -6 -11 -18 14 -30 66 -30 54 0 65
-7 43 -31 -12 -14 -22 -16 -40 -9 -20 8 -24 6 -24 -10 0 -23 36 -50 67 -50 24
0 39 21 47 63 7 41 14 46 53 40 28 -5 35 -3 31 8 -2 8 -19 15 -36 17 -59 6
-32 59 38 75 14 4 36 16 48 27 18 17 21 25 11 36 -6 8 -21 14 -33 14 -41 1 21
39 86 52 68 14 85 33 62 67 -13 17 -22 20 -49 15 -40 -7 -54 9 -20 24 26 12
29 20 19 46 -9 24 -26 19 -56 -17z"/>
<path d="M2915 5155 c0 -42 2 -45 28 -45 21 0 27 5 27 23 0 27 -26 67 -43 67
-8 0 -12 -16 -12 -45z"/>
<path d="M4146 5191 c-3 -5 -15 -7 -26 -4 -13 4 -20 0 -20 -9 0 -9 -9 -27 -20
-41 -11 -14 -20 -30 -20 -36 0 -16 36 -13 50 4 7 9 19 14 27 11 7 -3 20 5 29
19 12 18 13 28 4 44 -12 23 -16 25 -24 12z"/>
<path d="M1796 5134 c-38 -44 -38 -44 -13 -44 38 0 56 10 71 39 14 28 11 52
-7 50 -7 0 -29 -21 -51 -45z"/>
<path d="M2959 4956 c-2 -2 -38 -7 -79 -10 -230 -19 -490 -91 -691 -192 -159
-79 -370 -229 -512 -363 -31 -30 -46 -36 -80 -36 l-42 0 -5 -55 c-5 -51 -11
-64 -76 -145 -99 -126 -123 -164 -192 -300 -53 -108 -117 -265 -126 -312 -2
-10 -11 -43 -19 -73 -9 -30 -28 -113 -44 -185 -24 -113 -27 -151 -26 -295 1
-231 27 -455 68 -570 7 -19 22 -66 35 -105 12 -38 26 -79 31 -90 4 -11 18 -45
29 -75 57 -148 252 -469 307 -503 9 -5 13 -32 13 -81 l0 -73 40 -27 c53 -35
136 -71 185 -80 22 -4 59 -24 85 -44 179 -146 483 -291 750 -357 143 -36 149
-36 380 -42 204 -5 305 2 475 33 56 10 237 64 334 101 156 58 327 150 465 251
42 31 84 53 109 57 43 8 132 46 190 82 l37 23 0 77 0 76 54 66 c139 173 244
372 326 621 41 123 55 186 75 325 2 11 8 54 15 95 8 50 11 130 7 240 -9 237
-29 353 -104 583 -33 102 -52 150 -118 292 -32 68 -174 288 -230 354 -31 38
-35 49 -30 80 8 51 -5 65 -52 58 -38 -6 -41 -4 -148 94 -330 302 -723 467
-1190 499 -160 10 -239 12 -246 6z m227 -76 c247 -20 468 -71 662 -154 154
-66 381 -216 522 -345 l45 -41 -44 0 c-73 0 -176 37 -376 135 -229 113 -300
135 -456 142 -146 7 -235 -11 -371 -74 l-96 -45 -68 32 c-151 71 -261 100
-382 100 -114 0 -209 -31 -427 -139 -207 -103 -298 -135 -400 -146 l-60 -6 56
53 c67 64 188 152 301 219 46 27 89 53 96 59 16 14 128 65 212 97 113 43 221
71 355 92 217 34 243 36 431 21z m-354 -346 c46 -15 116 -44 156 -65 41 -22
80 -39 88 -39 8 0 51 20 97 44 45 25 102 50 127 56 25 6 63 16 85 22 22 6 85
10 140 10 123 0 189 -20 403 -126 81 -40 176 -85 212 -99 97 -38 230 -60 323
-53 l77 5 -2 -1386 -3 -1387 -55 -28 c-30 -15 -82 -35 -115 -43 -73 -19 -271
-22 -335 -5 -56 14 -211 72 -265 98 -89 43 -189 84 -291 118 -95 32 -117 36
-189 32 -74 -3 -87 -7 -143 -41 -67 -42 -83 -42 -130 -3 -45 38 -96 49 -196
43 -78 -4 -107 -12 -202 -50 -61 -25 -142 -61 -180 -80 -101 -50 -257 -107
-338 -122 -156 -28 -274 -14 -412 49 l-74 35 0 1388 0 1388 123 0 c166 0 232
19 431 119 146 74 313 138 391 150 65 10 196 -5 277 -30z m1889 -574 c169
-297 240 -505 275 -810 12 -108 15 -185 10 -305 -6 -144 -10 -183 -31 -290
-27 -136 -102 -345 -176 -490 -51 -99 -170 -288 -189 -300 -7 -4 -10 403 -10
1181 l0 1188 31 -35 c17 -19 58 -81 90 -139z m-3171 -1020 c0 -649 -4 -1180
-8 -1180 -11 0 -71 82 -114 155 -131 220 -237 508 -263 709 -3 27 -8 53 -10
56 -13 22 -24 323 -16 435 16 212 102 498 218 730 39 77 172 275 185 275 4 0
8 -531 8 -1180z m1380 -1320 c19 -5 57 -28 84 -50 26 -22 52 -40 57 -40 4 0
33 17 63 39 135 94 244 82 538 -57 218 -104 302 -132 447 -148 l65 -7 -29 -23
c-16 -12 -40 -28 -54 -36 -14 -7 -28 -16 -31 -20 -10 -12 -265 -126 -357 -158
-131 -47 -402 -109 -520 -121 -94 -9 -352 3 -375 17 -3 2 -43 11 -89 20 -241
46 -556 168 -712 277 l-58 41 98 16 c128 22 173 37 378 128 232 103 315 130
395 131 36 1 81 -3 100 -9z"/>
<path d="M3675 4268 c-2 -7 -5 -24 -7 -38 -3 -25 -4 -25 -129 -31 -137 -7
-172 -18 -167 -52 3 -22 6 -22 151 -19 l147 3 0 -65 c0 -80 -8 -86 -124 -93
-44 -3 -89 -10 -99 -15 -47 -24 -87 -229 -54 -273 14 -18 20 -19 113 -7 141
17 141 18 154 -22 6 -19 10 -53 8 -77 -2 -35 -11 -53 -53 -101 -31 -36 -60
-83 -77 -125 -26 -69 -58 -247 -58 -328 0 -40 -2 -44 -32 -54 -18 -5 -51 -13
-73 -17 -43 -7 -85 -29 -85 -44 0 -23 34 -41 73 -38 29 2 40 -1 42 -12 2 -8 6
-34 10 -57 l8 -43 -34 0 c-57 0 -109 -19 -109 -39 0 -35 23 -42 114 -35 49 4
86 3 86 -2 0 -31 -43 -77 -154 -167 -40 -33 -30 -62 18 -54 44 7 113 51 121
77 9 29 24 25 40 -12 l14 -33 -100 -101 c-85 -85 -101 -106 -102 -135 -2 -25
3 -34 16 -37 20 -4 104 68 155 134 19 24 40 43 46 41 6 -2 14 -24 17 -48 6
-43 5 -45 -55 -109 -64 -68 -141 -172 -170 -228 -10 -18 -16 -48 -14 -65 2
-26 7 -32 27 -32 18 0 29 10 45 40 11 22 55 87 98 143 l78 104 0 -64 c0 -74
-19 -147 -55 -210 -14 -24 -25 -58 -25 -75 0 -28 3 -33 25 -33 27 0 58 41 87
116 21 53 38 175 38 273 0 63 4 81 18 94 25 23 41 21 47 -5 8 -36 43 -266 50
-336 7 -64 26 -90 54 -72 11 6 13 35 8 131 -6 141 -29 269 -63 347 -26 58 -44
65 -87 32 -14 -11 -27 -20 -30 -20 -5 0 -12 26 -21 83 -8 46 -16 70 -43 120
-22 42 -23 52 -13 77 15 37 33 42 128 40 115 -4 122 -3 122 19 0 27 -11 32
-88 39 -74 8 -72 4 -51 84 9 35 11 37 57 40 43 3 47 5 50 30 3 25 0 27 -75 43
-135 29 -128 23 -131 91 -4 67 29 225 61 292 11 24 39 63 63 87 24 24 48 55
54 70 16 41 12 169 -6 215 -20 50 -35 54 -164 47 -111 -7 -118 -3 -105 67 12
62 43 80 151 86 134 7 134 7 134 199 0 101 -4 151 -12 159 -16 16 -57 15 -63
0z m-82 -1365 c12 -7 1 -77 -19 -114 -11 -22 -22 -29 -43 -29 -27 0 -30 3 -44
68 -15 62 -15 68 1 80 16 13 81 10 105 -5z"/>
<path d="M2702 4248 c-7 -7 -12 -22 -12 -34 0 -13 -8 -25 -17 -28 -27 -7 -87
-20 -98 -20 -5 -1 -10 -14 -10 -31 0 -29 1 -30 44 -27 24 1 52 7 62 13 17 9
19 6 19 -35 l0 -45 -54 -16 c-59 -17 -82 -36 -72 -60 7 -18 38 -19 89 -1 l37
14 0 -37 c-1 -45 -17 -67 -60 -78 -18 -5 -39 -18 -47 -30 -13 -19 -12 -23 7
-33 18 -10 31 -8 68 6 94 35 102 57 102 268 0 160 -5 186 -35 186 -6 0 -16 -5
-23 -12z"/>
<path d="M2046 4234 c-12 -31 -6 -338 7 -363 15 -30 90 -71 129 -71 41 0 38
35 -4 54 -53 24 -66 39 -69 81 -4 44 -9 42 79 29 40 -6 42 -5 42 18 0 24 -22
37 -107 64 -8 2 -13 20 -13 42 l0 39 54 -5 c47 -4 54 -2 59 17 7 27 -14 42
-68 49 -33 3 -45 9 -45 21 0 37 -52 57 -64 25z"/>
<path d="M2293 4233 c-22 -8 -14 -30 22 -57 l34 -26 -36 -34 c-25 -22 -34 -38
-30 -49 9 -25 32 -21 70 13 42 36 47 37 77 5 30 -32 80 -35 80 -5 0 11 -14 32
-30 47 l-30 27 30 31 c16 17 30 36 30 43 0 20 -40 13 -75 -14 l-33 -25 -41 25
c-42 27 -47 28 -68 19z"/>
<path d="M3960 4221 c-5 -11 -10 -85 -10 -168 0 -184 -16 -248 -87 -360 -58
-90 -77 -147 -67 -201 20 -112 96 -164 239 -164 105 -1 188 23 232 67 30 30
33 38 33 92 0 85 -25 147 -80 205 -36 37 -54 49 -71 46 -44 -6 -36 -48 21
-119 57 -71 66 -96 54 -142 -14 -47 -60 -67 -158 -67 -103 0 -154 15 -177 54
-35 57 -27 88 54 208 64 94 81 175 81 386 1 134 -2 164 -14 172 -23 15 -38 12
-50 -9z"/>
<path d="M2440 4005 c-28 -30 -37 -31 -70 -5 -14 11 -35 20 -47 20 -39 0 -38
-22 2 -55 l37 -32 -41 -33 c-22 -18 -41 -42 -41 -52 0 -29 43 -22 80 12 18 17
34 30 37 30 2 0 16 -13 30 -30 30 -36 73 -42 73 -9 0 11 -12 36 -27 56 l-27
35 33 30 c34 31 36 58 3 58 -10 0 -29 -11 -42 -25z"/>
<path d="M2083 3761 c-78 -13 -83 -24 -83 -188 l0 -143 24 0 c25 0 26 6 39
218 3 41 31 55 125 63 130 10 451 4 495 -10 l37 -12 0 -66 c0 -37 5 -95 11
-130 11 -61 12 -63 41 -63 l31 0 -7 118 c-4 64 -11 135 -14 157 -7 37 -10 41
-52 52 -49 12 -573 16 -647 4z"/>
<path d="M2377 3664 c-2 -2 -28 -8 -58 -14 -114 -21 -152 -55 -129 -114 19
-52 158 -91 174 -49 8 19 -9 33 -40 33 -28 0 -69 33 -60 48 22 35 249 43 283
9 25 -25 8 -47 -58 -74 -68 -27 -89 -53 -89 -109 l0 -44 -40 0 c-41 0 -108 29
-181 77 -31 20 -41 23 -58 13 -27 -14 -26 -22 4 -59 29 -34 103 -65 198 -82
l64 -12 -9 -39 c-22 -98 -65 -156 -142 -193 -97 -46 -179 -186 -132 -225 22
-18 42 -1 73 60 22 44 41 64 92 97 35 23 77 55 94 70 37 35 77 122 84 185 5
39 10 49 27 53 139 28 179 41 211 68 65 53 34 99 -39 57 -75 -43 -111 -58
-150 -65 l-38 -6 7 38 c9 50 36 78 91 93 85 24 112 105 48 142 -27 16 -218 51
-227 42z"/>
<path d="M3873 3049 c-8 -7 -10 -28 -6 -54 3 -27 -2 -70 -16 -123 -11 -45 -21
-100 -21 -122 0 -38 2 -40 30 -40 27 0 31 5 45 53 9 28 21 90 27 135 7 54 16
86 25 89 7 3 38 2 68 -2 53 -6 55 -8 55 -36 0 -17 -7 -59 -16 -96 -23 -90 -12
-134 36 -149 27 -9 45 -9 78 2 72 21 100 57 66 85 -14 11 -21 10 -46 -4 -63
-36 -76 -19 -53 72 9 37 15 89 13 117 -3 42 -7 51 -30 62 -39 18 -240 28 -255
11z"/>
<path d="M2554 3036 c-10 -27 4 -46 50 -67 51 -22 82 -56 91 -100 9 -39 37
-54 59 -30 22 24 20 47 -8 95 -45 76 -175 146 -192 102z"/>
<path d="M2397 3014 c-4 -4 -7 -63 -7 -131 l0 -123 -77 -1 c-144 -3 -235 -18
-250 -43 -4 -6 -8 -106 -9 -222 -1 -116 -8 -288 -14 -382 -6 -94 -9 -176 -5
-182 3 -5 17 -10 30 -10 29 0 32 10 39 130 3 47 10 150 16 230 6 80 9 197 5
261 -7 132 -9 129 75 150 73 19 427 16 485 -3 37 -12 41 -16 47 -58 3 -25 7
-130 8 -235 1 -104 6 -217 11 -250 5 -33 12 -97 15 -142 6 -71 9 -82 27 -87
11 -3 24 -3 29 0 4 3 6 56 3 117 -3 62 -12 239 -19 395 -9 182 -18 288 -26
297 -6 7 -26 17 -43 21 -18 4 -35 9 -39 10 -5 1 -60 2 -123 3 l-114 1 -3 128
-3 127 -25 3 c-14 2 -29 0 -33 -4z"/>
<path d="M3935 2630 c-68 -4 -80 -8 -83 -24 -7 -34 14 -41 122 -37 68 2 106
-1 111 -8 3 -6 -1 -36 -10 -67 l-16 -55 -87 6 c-108 7 -147 -2 -147 -36 0 -21
6 -25 50 -31 28 -3 71 -7 98 -7 27 -1 47 -6 47 -12 0 -6 -43 -55 -96 -110 -93
-96 -106 -120 -70 -127 47 -9 124 45 187 131 15 21 30 34 33 29 3 -5 12 -67
21 -138 17 -141 41 -255 60 -294 34 -68 95 -78 95 -16 0 17 -4 36 -9 42 -27
27 -53 127 -66 255 -7 76 -21 163 -31 193 -17 53 -17 58 2 118 23 76 25 152 4
171 -18 17 -105 24 -215 17z"/>
<path d="M2355 2620 c-74 -12 -102 -26 -119 -58 -19 -36 -14 -137 8 -179 17
-34 33 -43 76 -43 56 0 60 -6 60 -86 l0 -74 -62 -1 c-91 -1 -153 -19 -153 -44
0 -19 8 -20 108 -23 l107 -3 0 -79 0 -80 -99 0 c-118 0 -154 -10 -149 -43 l3
-22 285 -5 c157 -3 291 -4 298 -2 18 6 15 49 -5 57 -10 4 -71 10 -135 13
l-118 4 0 48 c0 26 -3 62 -6 80 l-7 32 105 -7 c118 -8 151 1 146 38 -4 28 -33
34 -156 36 l-93 1 3 78 3 77 50 6 c28 4 61 10 74 14 70 22 66 228 -6 256 -37
14 -159 19 -218 9z m190 -62 c11 -10 18 -93 11 -121 -8 -34 -46 -47 -141 -47
-91 0 -102 5 -125 59 -17 41 -3 91 30 109 26 13 212 14 225 0z"/>
<path d="M1816 4884 c-17 -45 4 -78 32 -51 13 13 13 21 4 42 -13 29 -27 32
-36 9z"/>
<path d="M1066 4533 l-26 -38 26 -3 c15 -2 51 -21 81 -43 l53 -40 -41 -54
c-23 -30 -44 -55 -47 -55 -3 0 -29 18 -59 40 -32 25 -53 48 -53 60 0 30 -14
24 -44 -17 l-26 -38 28 -6 c35 -7 38 -9 150 -94 54 -40 95 -79 98 -92 8 -32
18 -29 48 17 25 39 26 40 5 40 -31 0 -109 58 -109 81 0 11 17 38 38 60 l38 41
44 -34 c25 -19 46 -43 48 -53 7 -37 17 -35 44 10 l28 45 -24 0 c-13 0 -42 15
-64 33 -21 17 -74 56 -116 85 -52 35 -76 59 -76 72 0 30 -14 24 -44 -17z"/>
<path d="M5027 4547 c-15 -59 -145 -117 -264 -117 -69 0 -74 -6 -42 -51 19
-26 49 -43 34 -19 -12 20 16 39 73 51 31 6 63 14 71 17 11 4 13 -1 8 -25 -9
-44 -58 -122 -80 -125 -14 -2 -6 -19 49 -93 59 -80 118 -172 127 -199 2 -6 20
0 41 13 45 28 42 46 -8 46 -26 1 -43 7 -52 20 -8 10 -13 19 -11 20 1 2 60 39
131 83 105 66 132 79 147 71 27 -14 24 3 -8 52 -27 41 -27 41 -35 17 -6 -16
-37 -41 -91 -73 -45 -27 -102 -62 -126 -79 -42 -28 -45 -28 -58 -11 -17 24
-16 29 3 66 19 37 13 46 -22 30 -15 -6 -28 -10 -31 -7 -2 2 20 50 49 107 57
110 101 155 145 146 31 -6 29 3 -10 48 l-34 39 -6 -27z"/>
<path d="M866 4208 c-56 -33 -75 -91 -51 -153 19 -52 73 -99 145 -126 61 -23
92 -24 131 -4 92 48 91 178 -3 247 -73 55 -164 70 -222 36z m116 -43 c76 -31
126 -69 143 -108 50 -119 -129 -128 -248 -13 -53 51 -58 82 -18 118 38 34 46
34 123 3z"/>
<path d="M5320 4100 c-21 -26 -247 -142 -276 -142 -29 0 -29 -6 -7 -53 18 -38
33 -46 33 -17 0 23 263 156 291 147 23 -8 23 -4 5 39 -18 43 -27 48 -46 26z"/>
<path d="M724 3959 c-7 -8 -15 -29 -19 -47 -6 -31 -6 -32 18 -21 20 9 41 4
129 -30 57 -23 110 -41 118 -41 7 0 11 -3 8 -6 -6 -5 -99 -23 -238 -44 -36 -6
-73 -13 -82 -16 -27 -8 -22 -30 10 -42 15 -6 81 -32 147 -57 67 -26 127 -55
136 -67 16 -21 16 -20 27 8 5 16 13 37 17 46 6 15 2 16 -30 11 -27 -4 -59 3
-125 28 -50 18 -90 36 -90 39 0 3 53 14 118 23 64 10 126 19 137 22 11 2 23 4
27 4 11 1 36 64 31 74 -3 4 -11 3 -18 -3 -26 -21 -300 84 -307 117 -3 14 -5
14 -14 2z"/>
<path d="M5298 3935 c-27 -15 -42 -50 -53 -118 -7 -49 -20 -74 -46 -88 -47
-25 -106 67 -65 101 9 7 16 19 16 26 0 17 1 17 -39 3 -31 -11 -32 -14 -26 -47
15 -80 55 -122 115 -122 47 0 77 31 85 90 15 104 34 130 94 130 20 0 35 -8 45
-22 21 -30 20 -50 -4 -78 -11 -13 -20 -27 -20 -32 0 -15 40 -8 59 11 16 16 18
25 9 58 -22 88 -98 127 -170 88z"/>
<path d="M5480 3757 c0 -8 -22 -35 -49 -60 -27 -26 -52 -56 -56 -66 -6 -19 -8
-19 -43 5 -42 29 -79 27 -122 -5 -22 -16 -25 -26 -25 -77 1 -33 9 -80 20 -108
16 -41 20 -46 30 -32 24 32 289 106 308 87 20 -20 25 -11 16 31 -13 55 -19 62
-33 42 -13 -17 -121 -56 -131 -46 -3 3 -5 18 -5 34 0 22 14 42 60 86 56 53 60
60 54 90 -6 31 -24 45 -24 19z m-141 -164 c12 -10 23 -31 24 -47 2 -29 -1 -31
-66 -50 -77 -22 -87 -17 -87 40 0 60 81 96 129 57z"/>
<path d="M665 3595 c-22 -8 -48 -24 -57 -35 -19 -24 -38 -82 -38 -117 0 -13
-4 -23 -10 -23 -5 0 -10 -6 -10 -14 0 -9 17 -16 50 -21 31 -4 62 -16 79 -31
l28 -24 6 33 c3 17 9 41 13 51 6 16 4 18 -12 12 -10 -4 -26 -9 -34 -11 -19 -4
-80 21 -81 32 0 4 -2 16 -4 26 -2 10 9 32 24 49 26 29 33 31 90 31 45 -1 76
-8 115 -27 93 -46 115 -89 67 -136 -16 -17 -37 -30 -46 -30 -24 0 -13 -23 14
-30 12 -3 23 -9 24 -14 1 -5 -34 -27 -78 -50 -72 -37 -87 -41 -153 -41 -64 0
-76 3 -92 22 l-18 22 -6 -22 c-3 -12 -6 -40 -6 -62 0 -39 0 -39 16 -17 22 32
67 28 151 -12 75 -36 168 -116 161 -138 -4 -10 -41 -14 -154 -16 -139 -2 -150
-1 -165 17 -16 19 -17 18 -22 -32 -2 -29 -3 -54 -1 -56 2 -2 13 4 24 14 18 16
33 17 162 11 78 -3 147 -11 153 -16 20 -17 25 1 25 93 0 78 -2 88 -15 77 -20
-16 -56 -1 -109 45 l-40 34 30 12 c82 32 113 38 128 24 19 -19 26 -9 26 40 0
24 7 62 15 85 43 121 -15 220 -145 249 -56 13 -57 13 -105 -4z"/>
<path d="M5512 3413 c-19 -4 -21 -7 -11 -19 6 -8 17 -14 24 -14 21 0 43 -33
50 -76 l6 -42 -64 -11 c-35 -6 -68 -11 -74 -11 -19 0 -22 63 -5 83 21 24 5 35
-40 30 -41 -6 -53 -31 -19 -40 13 -3 20 -16 23 -40 5 -41 1 -43 -77 -46 l-59
-2 -4 45 c-3 36 1 50 17 64 38 35 25 54 -27 40 -21 -6 -23 -11 -17 -48 8 -53
24 -223 25 -260 0 -28 1 -29 20 -11 18 16 26 16 82 5 77 -15 180 -52 180 -65
0 -6 -33 -21 -74 -33 -86 -28 -188 -40 -188 -23 0 6 -3 11 -7 11 -5 0 -6 -25
-5 -56 4 -51 5 -54 20 -41 10 8 90 38 180 67 135 43 162 55 162 71 0 10 -6 19
-14 19 -25 0 -259 81 -301 104 -22 12 -40 28 -40 36 0 14 58 33 137 44 24 3
69 10 101 14 43 7 62 5 75 -4 25 -19 33 -17 28 9 -12 59 -26 145 -29 172 -4
31 -23 39 -75 28z"/>
<path d="M5269 2825 c0 -5 -3 -30 -5 -55 -5 -44 -5 -44 15 -26 11 10 27 16 35
13 8 -3 66 -9 128 -12 64 -4 126 -13 142 -21 16 -8 31 -14 33 -14 1 0 3 23 3
52 0 40 -3 49 -12 40 -8 -8 -48 -12 -117 -11 -126 0 -200 11 -212 30 -5 8 -9
10 -10 4z"/>
<path d="M857 2790 c-9 -11 -27 -20 -39 -21 -13 0 -30 -2 -38 -4 -118 -26
-218 -33 -240 -18 -18 13 -20 12 -20 -5 0 -11 3 -34 6 -51 6 -29 8 -30 23 -17
15 14 140 40 149 32 4 -4 10 -41 15 -98 4 -35 3 -37 -32 -42 -75 -11 -109 -10
-126 4 -17 14 -18 12 -11 -40 9 -64 12 -69 29 -47 8 11 49 24 121 37 137 25
185 26 202 3 12 -16 13 -13 14 24 0 66 -7 76 -38 53 -16 -11 -48 -20 -77 -22
l-50 -3 -8 59 c-5 32 -6 64 -3 71 2 7 27 15 55 19 39 5 57 3 76 -10 l26 -17
-7 54 c-4 30 -7 55 -8 56 -1 1 -10 -6 -19 -17z"/>
<path d="M5250 2676 c0 -13 -3 -31 -6 -39 -4 -12 3 -14 41 -10 44 5 187 -12
212 -26 6 -3 -53 -28 -132 -55 -143 -49 -144 -50 -150 -84 -7 -39 -1 -50 19
-33 25 21 246 -23 297 -59 l26 -18 10 44 c9 41 3 58 -12 33 -4 -5 -19 -8 -33
-4 -15 3 -45 7 -67 10 -22 3 -71 10 -109 16 -78 13 -75 18 24 50 36 11 74 24
85 29 11 5 50 19 88 32 99 34 89 49 -51 70 -113 17 -207 42 -217 59 -11 17
-25 9 -25 -15z"/>
<path d="M725 2439 c-78 -22 -109 -46 -125 -95 -15 -44 3 -104 42 -141 27 -26
36 -28 106 -28 134 0 217 60 217 155 0 103 -100 148 -240 109z m152 -31 c107
-46 76 -124 -69 -175 -35 -12 -76 -22 -91 -23 -42 0 -83 25 -97 60 -12 30 -11
33 16 60 17 17 63 42 109 58 95 35 96 35 132 20z"/>
<path d="M5192 2373 c-24 -66 -24 -65 7 -58 55 12 224 -48 271 -95 43 -43 9
-105 -55 -103 -51 1 -227 63 -248 86 -21 23 -25 21 -42 -30 -16 -46 -12 -56
19 -42 18 8 44 3 129 -25 127 -43 166 -45 203 -12 24 20 28 33 32 88 4 61 3
66 -25 89 -26 22 -141 64 -227 83 -16 4 -30 15 -33 26 -7 28 -19 25 -31 -7z"/>
<path d="M984 2194 c-7 -25 -11 -27 -159 -90 -116 -49 -120 -50 -147 -39 -16
6 -16 4 -1 -34 17 -43 27 -51 36 -26 4 8 25 24 48 36 53 26 199 88 199 84 0
-2 -33 -46 -72 -97 -121 -155 -129 -168 -126 -187 3 -18 11 -16 98 20 52 22
113 48 135 58 64 29 85 34 100 21 19 -16 19 -2 -1 46 -16 37 -17 38 -26 18 -6
-12 -29 -30 -52 -39 -22 -10 -69 -31 -103 -46 -35 -15 -63 -25 -63 -21 0 4 40
58 89 121 84 109 88 116 78 145 -14 44 -27 55 -33 30z"/>
<path d="M5058 2004 c-22 -43 -23 -55 -3 -48 21 9 70 -11 150 -59 l70 -42
-150 -6 c-83 -4 -151 -7 -152 -8 -4 -2 -33 -60 -33 -66 0 -3 11 -3 24 1 17 4
44 -4 85 -25 87 -44 189 -110 200 -129 7 -13 13 -8 29 25 l21 41 -49 4 c-31 3
-66 16 -97 35 -26 17 -66 40 -88 52 l-40 21 30 1 c311 13 320 14 323 29 1 10
-41 38 -135 86 -84 43 -142 79 -149 93 -16 32 -18 32 -36 -5z"/>
<path d="M983 1832 c-87 -44 -123 -87 -123 -146 0 -84 66 -143 148 -132 57 8
157 61 184 98 47 67 29 161 -36 191 -66 31 -96 29 -173 -11z m190 -34 c40 -48
-16 -129 -128 -184 -62 -30 -102 -31 -132 -2 -54 50 -10 123 110 183 80 41
119 41 150 3z"/>
<path d="M4851 1666 c-13 -15 -5 -38 24 -74 83 -100 164 -234 165 -272 1 -9
15 1 35 24 38 42 45 62 19 52 -20 -8 -50 9 -70 39 -15 23 -14 26 17 70 29 40
37 45 59 40 34 -9 60 -34 60 -59 0 -20 1 -20 21 4 11 14 26 37 34 52 15 27 15
27 -17 27 -27 -1 -188 53 -306 101 -29 12 -27 13 -41 -4z m177 -97 l22 -9 -26
-40 c-15 -22 -29 -40 -33 -40 -5 0 -78 109 -89 133 -2 4 20 -2 50 -14 29 -11
63 -25 76 -30z"/>
<path d="M1280 1646 c0 -18 -231 -203 -259 -208 -22 -3 -22 -3 6 -40 31 -42
43 -47 43 -19 0 21 72 91 94 91 35 0 34 -60 -3 -141 l-29 -64 20 -22 c20 -21
45 -23 32 -2 -3 5 6 34 20 65 14 31 26 68 26 81 0 20 4 24 18 18 42 -16 68
-15 100 5 40 25 56 63 43 100 -8 24 -99 150 -108 150 -1 0 -3 -6 -3 -14z m68
-118 c2 -26 -4 -43 -23 -67 -30 -34 -52 -38 -94 -16 -43 22 -45 42 -8 75 79
69 80 70 102 56 12 -8 21 -27 23 -48z"/>
<path d="M4723 1490 l-32 -38 24 -6 c29 -7 95 -63 95 -80 0 -14 -77 -96 -89
-96 -4 0 -26 20 -50 44 -29 29 -42 50 -38 60 10 25 -7 19 -41 -17 -36 -38 -40
-47 -14 -40 25 6 232 -193 232 -225 0 -29 6 -28 41 9 32 34 34 39 18 39 -15 0
-119 92 -119 106 0 6 21 30 46 54 45 41 46 42 67 23 60 -51 82 -81 78 -105 -2
-17 17 -6 47 25 35 36 41 53 16 43 -32 -12 -208 147 -238 216 l-11 26 -32 -38z"/>
<path d="M1480 1310 c-139 -74 -187 -190 -117 -281 43 -56 80 -69 113 -38 35
33 30 42 -20 35 -37 -6 -48 -4 -65 13 -43 43 -21 112 60 189 51 49 102 76 130
67 30 -10 52 -51 46 -84 -8 -39 2 -45 30 -19 30 28 29 49 -4 80 -57 52 -120
67 -173 38z"/>
<path d="M4505 1278 c-35 -32 -37 -37 -19 -38 37 0 194 -194 194 -238 0 -45
-68 -82 -106 -57 -54 35 -180 205 -170 230 8 23 -8 18 -40 -12 -16 -16 -46
-40 -67 -54 -30 -21 -35 -28 -22 -33 9 -3 23 -22 31 -42 16 -39 55 -206 50
-212 -4 -4 -10 2 -111 116 -44 50 -87 90 -95 89 -23 -4 -18 -78 14 -189 15
-54 26 -103 24 -109 -2 -6 -30 18 -63 53 -88 93 -107 120 -102 146 5 27 -3 28
-53 2 -48 -24 -50 -34 -10 -50 16 -7 75 -62 132 -124 56 -61 108 -112 115
-114 26 -7 25 31 -3 146 -15 64 -29 126 -31 137 -3 20 72 -54 145 -142 34 -43
68 -55 78 -30 2 7 -7 58 -21 113 -14 54 -29 134 -32 178 -7 95 1 96 65 15 90
-114 117 -142 148 -155 40 -17 66 -9 112 34 60 56 41 136 -63 261 -27 33 -52
73 -55 88 l-5 28 -40 -37z"/>
<path d="M1685 1146 c-98 -44 -162 -204 -111 -281 19 -29 71 -55 111 -55 116
0 224 184 173 295 -23 51 -107 70 -173 41z m129 -32 c49 -48 -24 -213 -115
-260 -38 -19 -59 -18 -86 8 -30 28 -29 60 6 133 52 109 147 167 195 119z"/>
<path d="M1953 1028 c4 -14 -11 -58 -43 -125 -55 -117 -84 -161 -111 -172 -16
-5 -9 -12 38 -35 32 -16 69 -37 83 -46 52 -36 65 -34 91 14 29 55 20 67 -21
32 -17 -14 -36 -26 -40 -26 -23 0 -80 35 -80 49 1 38 127 258 153 267 17 5 17
7 2 24 -9 10 -31 23 -47 29 -28 10 -30 9 -25 -11z"/>
<path d="M2169 916 c12 -14 8 -31 -28 -124 -61 -157 -69 -172 -93 -181 -12 -4
-17 -10 -12 -13 16 -11 191 -78 201 -78 11 0 43 64 43 85 0 21 -17 18 -30 -5
-17 -32 -44 -41 -82 -28 -18 6 -37 14 -42 19 -4 4 13 63 39 131 57 148 62 158
80 158 8 0 15 4 15 10 0 12 -27 26 -70 35 -31 7 -33 6 -21 -9z"/>
<path d="M3667 827 c-89 -25 -106 -33 -93 -42 9 -7 23 -29 31 -49 25 -60 67
-245 60 -267 -6 -19 -4 -20 32 -13 57 10 71 19 46 32 -18 10 -39 53 -58 119
-5 19 -1 23 30 29 27 5 41 2 54 -10 27 -24 34 -6 20 48 -11 46 -39 64 -39 26
0 -21 -27 -40 -58 -40 -16 0 -23 13 -37 65 -10 36 -16 68 -13 70 3 3 28 8 55
12 45 5 52 3 66 -18 24 -34 39 -14 26 34 -5 20 -11 37 -12 36 -1 0 -51 -15
-110 -32z"/>
<path d="M2390 841 c0 -4 5 -12 10 -17 20 -20 -61 -314 -86 -314 -33 0 -10
-17 39 -29 28 -7 71 -19 95 -27 67 -22 77 -19 90 25 15 48 15 51 -1 51 -8 0
-20 -12 -28 -26 -12 -24 -18 -26 -62 -21 -26 2 -52 8 -57 13 -5 5 -2 38 8 77
16 68 17 69 46 63 35 -7 56 -23 56 -42 0 -25 18 -15 25 14 15 60 16 72 1 72
-8 0 -19 -7 -23 -15 -11 -19 -67 -5 -71 17 -2 9 3 38 11 65 12 42 18 48 44 51
35 4 80 -28 85 -60 5 -35 24 -31 35 6 8 26 8 38 -1 44 -15 12 -216 61 -216 53z"/>
<path d="M3349 747 c-91 -60 -91 -216 -1 -309 30 -31 43 -38 75 -38 49 0 95
28 122 72 15 25 20 51 20 103 0 92 -24 141 -85 173 -56 28 -88 28 -131 -1z
m112 -28 c16 -17 36 -56 45 -87 51 -173 -67 -289 -141 -138 -46 95 -43 205 8
241 32 23 56 18 88 -16z"/>
<path d="M2689 736 c-60 -41 -93 -157 -70 -243 17 -61 58 -89 143 -96 l67 -5
7 47 c4 25 13 59 21 74 8 16 13 30 11 32 -2 2 -23 7 -46 11 -28 4 -42 3 -42
-5 0 -6 5 -11 10 -11 15 0 12 -57 -5 -90 -29 -55 -96 -30 -116 43 -22 82 21
226 74 246 33 12 78 -7 91 -40 14 -39 33 -36 38 6 3 31 1 36 -26 45 -52 18
-118 12 -157 -14z"/>
<path d="M2930 740 c-9 -5 -9 -9 -1 -14 7 -5 11 -58 11 -156 0 -119 -3 -152
-15 -164 -8 -8 -15 -17 -15 -20 0 -3 52 -6 115 -6 l115 0 0 45 c0 46 -14 60
-25 25 -11 -35 -35 -50 -81 -50 l-44 0 0 80 0 80 30 0 c18 0 37 -8 47 -20 26
-31 33 -25 33 30 0 54 -8 62 -28 30 -8 -14 -23 -20 -47 -20 l-35 0 0 70 0 70
49 0 c41 0 53 -4 69 -25 28 -35 42 -31 42 10 l0 35 -72 1 c-40 0 -87 2 -104 3
-18 2 -37 0 -44 -4z"/>
</g>
</svg>
